<mxfile host="app.diagrams.net" modified="2022-04-20T15:11:44.205Z" agent="5.0 (Windows NT 10.0; Win64; x64) AppleWebKit/537.36 (KHTML, like Gecko) Chrome/100.0.4896.127 Safari/537.36" etag="ewWlTjEtrfoWfTZgMhvQ" version="17.4.5" type="github">
  <diagram id="yg1IE7VaSwWJatzPuXuU" name="Page-1">
    <mxGraphModel dx="1038" dy="539" grid="1" gridSize="10" guides="1" tooltips="1" connect="1" arrows="1" fold="1" page="1" pageScale="1" pageWidth="827" pageHeight="1169" math="0" shadow="0">
      <root>
        <mxCell id="0" />
        <mxCell id="1" parent="0" />
        <mxCell id="ivgzuz-2pKS20QDYnzjS-1" value="&lt;h1&gt;&lt;span&gt;Algorithm&lt;/span&gt;&lt;/h1&gt;&lt;h1&gt;&lt;ul&gt;&lt;li&gt;&lt;span style=&quot;font-size: 12px&quot;&gt;Step 1 :&lt;/span&gt;&lt;span style=&quot;font-size: 12px ; font-weight: normal&quot;&gt; Start&lt;/span&gt;&lt;/li&gt;&lt;li&gt;&lt;span style=&quot;font-size: 12px&quot;&gt;Step 2 :&lt;/span&gt;&lt;span style=&quot;font-size: 12px ; font-weight: normal&quot;&gt;&amp;nbsp;Input number a and b.&lt;/span&gt;&lt;/li&gt;&lt;li&gt;&lt;span style=&quot;font-size: 12px&quot;&gt;Step 3 :&lt;/span&gt;&lt;span style=&quot;font-size: 12px ; font-weight: normal&quot;&gt;&amp;nbsp;if a &lt;/span&gt;&lt;span style=&quot;font-size: 12px ; font-weight: 400&quot;&gt;superior&lt;/span&gt;&lt;span style=&quot;font-size: 12px ; font-weight: normal&quot;&gt;&amp;nbsp;to b then&amp;nbsp; go to step 4 else go to step 5&lt;/span&gt;&lt;span style=&quot;font-size: 12px ; font-weight: 400&quot;&gt;.&lt;/span&gt;&lt;/li&gt;&lt;li&gt;&lt;span style=&quot;font-size: 12px&quot;&gt;Step 4 :&lt;/span&gt;&lt;span style=&quot;font-size: 12px ; font-weight: normal&quot;&gt;&amp;nbsp;print a is&amp;nbsp; greater and go to step 6.&lt;/span&gt;&lt;/li&gt;&lt;li&gt;&lt;span style=&quot;font-size: 12px&quot;&gt;Step 5 :&lt;/span&gt;&lt;span style=&quot;font-size: 12px ; font-weight: normal&quot;&gt;&amp;nbsp;print b is&amp;nbsp; greater.&lt;/span&gt;&lt;/li&gt;&lt;li&gt;&lt;span style=&quot;font-size: 12px&quot;&gt;Step 10 :&lt;/span&gt;&lt;span style=&quot;font-size: 12px ; font-weight: normal&quot;&gt;&amp;nbsp;End&lt;/span&gt;&lt;/li&gt;&lt;li&gt;&lt;/li&gt;&lt;/ul&gt;&lt;/h1&gt;" style="text;html=1;strokeColor=none;fillColor=none;spacing=5;spacingTop=-20;whiteSpace=wrap;overflow=hidden;rounded=0;" parent="1" vertex="1">
          <mxGeometry x="80" y="80" width="680" height="240" as="geometry" />
        </mxCell>
        <mxCell id="ivgzuz-2pKS20QDYnzjS-2" value="&lt;b&gt;&lt;font style=&quot;font-size: 18px&quot;&gt;GREATER NUMBER FINDER&lt;/font&gt;&lt;/b&gt;" style="text;html=1;strokeColor=none;fillColor=none;align=left;verticalAlign=middle;whiteSpace=wrap;rounded=0;" parent="1" vertex="1">
          <mxGeometry x="80" y="39" width="470" height="30" as="geometry" />
        </mxCell>
        <mxCell id="ivgzuz-2pKS20QDYnzjS-3" value="&lt;h1&gt;&lt;font style=&quot;font-size: 30px&quot;&gt;Flow chart&lt;/font&gt;&lt;/h1&gt;" style="text;html=1;strokeColor=none;fillColor=none;align=left;verticalAlign=middle;whiteSpace=wrap;rounded=0;fontSize=18;" parent="1" vertex="1">
          <mxGeometry x="80" y="319" width="210" height="30" as="geometry" />
        </mxCell>
        <mxCell id="WqIEYXbpBzQ9HVMn9bfy-14" value="&lt;font style=&quot;font-size: 16px&quot;&gt;Start&lt;/font&gt;" style="rounded=1;whiteSpace=wrap;html=1;fontSize=30;align=center;" parent="1" vertex="1">
          <mxGeometry x="174.5" y="400" width="110" height="40" as="geometry" />
        </mxCell>
        <mxCell id="WqIEYXbpBzQ9HVMn9bfy-15" value="input a, b" style="shape=parallelogram;perimeter=parallelogramPerimeter;whiteSpace=wrap;html=1;fixedSize=1;fontSize=16;" parent="1" vertex="1">
          <mxGeometry x="147.5" y="466" width="164" height="30" as="geometry" />
        </mxCell>
        <mxCell id="WqIEYXbpBzQ9HVMn9bfy-16" value="" style="endArrow=classic;html=1;rounded=0;fontSize=16;entryX=0.5;entryY=0;entryDx=0;entryDy=0;exitX=0.5;exitY=1;exitDx=0;exitDy=0;" parent="1" source="WqIEYXbpBzQ9HVMn9bfy-14" target="WqIEYXbpBzQ9HVMn9bfy-15" edge="1">
          <mxGeometry width="50" height="50" relative="1" as="geometry">
            <mxPoint x="274.5" y="416" as="sourcePoint" />
            <mxPoint x="324.5" y="366" as="targetPoint" />
          </mxGeometry>
        </mxCell>
        <mxCell id="WqIEYXbpBzQ9HVMn9bfy-17" value="a &amp;gt; b&amp;nbsp;" style="rhombus;whiteSpace=wrap;html=1;" parent="1" vertex="1">
          <mxGeometry x="189.5" y="529" width="80" height="80" as="geometry" />
        </mxCell>
        <mxCell id="WqIEYXbpBzQ9HVMn9bfy-18" value="" style="endArrow=classic;html=1;rounded=0;entryX=0.5;entryY=0;entryDx=0;entryDy=0;exitX=0.5;exitY=1;exitDx=0;exitDy=0;" parent="1" source="WqIEYXbpBzQ9HVMn9bfy-15" target="WqIEYXbpBzQ9HVMn9bfy-17" edge="1">
          <mxGeometry width="50" height="50" relative="1" as="geometry">
            <mxPoint x="274.5" y="549" as="sourcePoint" />
            <mxPoint x="324.5" y="499" as="targetPoint" />
          </mxGeometry>
        </mxCell>
        <mxCell id="WqIEYXbpBzQ9HVMn9bfy-19" value="" style="endArrow=classic;html=1;rounded=0;exitX=1;exitY=0.5;exitDx=0;exitDy=0;entryX=0;entryY=0.5;entryDx=0;entryDy=0;entryPerimeter=0;" parent="1" source="WqIEYXbpBzQ9HVMn9bfy-17" target="WqIEYXbpBzQ9HVMn9bfy-21" edge="1">
          <mxGeometry width="50" height="50" relative="1" as="geometry">
            <mxPoint x="274.5" y="549" as="sourcePoint" />
            <mxPoint x="354.5" y="569" as="targetPoint" />
          </mxGeometry>
        </mxCell>
        <mxCell id="WqIEYXbpBzQ9HVMn9bfy-20" value="&lt;b&gt;&lt;font style=&quot;font-size: 14px&quot;&gt;Yes&lt;/font&gt;&lt;/b&gt;" style="edgeLabel;html=1;align=center;verticalAlign=middle;resizable=0;points=[];" parent="WqIEYXbpBzQ9HVMn9bfy-19" vertex="1" connectable="0">
          <mxGeometry x="-0.273" y="-1" relative="1" as="geometry">
            <mxPoint as="offset" />
          </mxGeometry>
        </mxCell>
        <mxCell id="WqIEYXbpBzQ9HVMn9bfy-21" value="print &quot;a is greater&quot;" style="shape=display;whiteSpace=wrap;html=1;fontSize=16;size=0.2736842105263158;align=right;" parent="1" vertex="1">
          <mxGeometry x="332.5" y="549" width="162" height="40" as="geometry" />
        </mxCell>
        <mxCell id="WqIEYXbpBzQ9HVMn9bfy-22" value="" style="endArrow=classic;html=1;rounded=0;fontSize=14;exitX=0.5;exitY=1;exitDx=0;exitDy=0;entryX=0;entryY=0;entryDx=93.16842105263157;entryDy=0;entryPerimeter=0;" parent="1" source="WqIEYXbpBzQ9HVMn9bfy-17" target="WqIEYXbpBzQ9HVMn9bfy-24" edge="1">
          <mxGeometry width="50" height="50" relative="1" as="geometry">
            <mxPoint x="274.5" y="839" as="sourcePoint" />
            <mxPoint x="324.5" y="789" as="targetPoint" />
          </mxGeometry>
        </mxCell>
        <mxCell id="WqIEYXbpBzQ9HVMn9bfy-23" value="No" style="edgeLabel;html=1;align=center;verticalAlign=middle;resizable=0;points=[];fontSize=14;" parent="WqIEYXbpBzQ9HVMn9bfy-22" vertex="1" connectable="0">
          <mxGeometry x="-0.5981" y="1" relative="1" as="geometry">
            <mxPoint as="offset" />
          </mxGeometry>
        </mxCell>
        <mxCell id="WqIEYXbpBzQ9HVMn9bfy-24" value="print &quot;b is greater&quot;" style="shape=display;whiteSpace=wrap;html=1;fontSize=16;size=0.2736842105263158;align=right;" parent="1" vertex="1">
          <mxGeometry x="135.5" y="652" width="162" height="40" as="geometry" />
        </mxCell>
        <mxCell id="WqIEYXbpBzQ9HVMn9bfy-25" value="&lt;font style=&quot;font-size: 16px&quot;&gt;End&lt;/font&gt;" style="rounded=1;whiteSpace=wrap;html=1;fontSize=30;align=center;" parent="1" vertex="1">
          <mxGeometry x="370.5" y="652" width="110" height="40" as="geometry" />
        </mxCell>
        <mxCell id="WqIEYXbpBzQ9HVMn9bfy-26" value="" style="endArrow=classic;html=1;rounded=0;fontSize=14;entryX=0;entryY=0.5;entryDx=0;entryDy=0;exitX=1;exitY=0.5;exitDx=0;exitDy=0;exitPerimeter=0;" parent="1" source="WqIEYXbpBzQ9HVMn9bfy-24" target="WqIEYXbpBzQ9HVMn9bfy-25" edge="1">
          <mxGeometry width="50" height="50" relative="1" as="geometry">
            <mxPoint x="274.5" y="659" as="sourcePoint" />
            <mxPoint x="324.5" y="609" as="targetPoint" />
          </mxGeometry>
        </mxCell>
        <mxCell id="WqIEYXbpBzQ9HVMn9bfy-27" value="" style="endArrow=classic;html=1;rounded=0;fontSize=14;entryX=0.5;entryY=0;entryDx=0;entryDy=0;exitX=0;exitY=0;exitDx=93.16842105263157;exitDy=40;exitPerimeter=0;" parent="1" source="WqIEYXbpBzQ9HVMn9bfy-21" target="WqIEYXbpBzQ9HVMn9bfy-25" edge="1">
          <mxGeometry width="50" height="50" relative="1" as="geometry">
            <mxPoint x="274.5" y="659" as="sourcePoint" />
            <mxPoint x="324.5" y="609" as="targetPoint" />
          </mxGeometry>
        </mxCell>
        <mxCell id="WqIEYXbpBzQ9HVMn9bfy-46" value="&lt;b&gt;&lt;font style=&quot;font-size: 21px&quot; color=&quot;#7d19ff&quot;&gt;Method 1&lt;/font&gt;&lt;/b&gt;" style="text;html=1;strokeColor=none;fillColor=none;align=left;verticalAlign=middle;whiteSpace=wrap;rounded=0;fontSize=14;" parent="1" vertex="1">
          <mxGeometry x="80" y="361" width="220" height="30" as="geometry" />
        </mxCell>
        <mxCell id="WqIEYXbpBzQ9HVMn9bfy-47" value="&lt;font style=&quot;font-size: 16px&quot;&gt;Start&lt;/font&gt;" style="rounded=1;whiteSpace=wrap;html=1;fontSize=30;align=center;" parent="1" vertex="1">
          <mxGeometry x="160.5" y="761" width="110" height="40" as="geometry" />
        </mxCell>
        <mxCell id="WqIEYXbpBzQ9HVMn9bfy-48" value="input a, b" style="shape=parallelogram;perimeter=parallelogramPerimeter;whiteSpace=wrap;html=1;fixedSize=1;fontSize=16;" parent="1" vertex="1">
          <mxGeometry x="133.5" y="827" width="164" height="30" as="geometry" />
        </mxCell>
        <mxCell id="WqIEYXbpBzQ9HVMn9bfy-49" value="" style="endArrow=classic;html=1;rounded=0;fontSize=16;entryX=0.5;entryY=0;entryDx=0;entryDy=0;exitX=0.5;exitY=1;exitDx=0;exitDy=0;" parent="1" source="WqIEYXbpBzQ9HVMn9bfy-47" target="WqIEYXbpBzQ9HVMn9bfy-48" edge="1">
          <mxGeometry width="50" height="50" relative="1" as="geometry">
            <mxPoint x="260.5" y="777" as="sourcePoint" />
            <mxPoint x="310.5" y="727" as="targetPoint" />
          </mxGeometry>
        </mxCell>
        <mxCell id="WqIEYXbpBzQ9HVMn9bfy-50" value="a &amp;gt; b&amp;nbsp;" style="rhombus;whiteSpace=wrap;html=1;" parent="1" vertex="1">
          <mxGeometry x="175.5" y="890" width="80" height="80" as="geometry" />
        </mxCell>
        <mxCell id="WqIEYXbpBzQ9HVMn9bfy-51" value="" style="endArrow=classic;html=1;rounded=0;entryX=0.5;entryY=0;entryDx=0;entryDy=0;exitX=0.5;exitY=1;exitDx=0;exitDy=0;" parent="1" source="WqIEYXbpBzQ9HVMn9bfy-48" target="WqIEYXbpBzQ9HVMn9bfy-50" edge="1">
          <mxGeometry width="50" height="50" relative="1" as="geometry">
            <mxPoint x="260.5" y="910" as="sourcePoint" />
            <mxPoint x="310.5" y="860" as="targetPoint" />
          </mxGeometry>
        </mxCell>
        <mxCell id="WqIEYXbpBzQ9HVMn9bfy-52" value="" style="endArrow=classic;html=1;rounded=0;exitX=1;exitY=0.5;exitDx=0;exitDy=0;entryX=0;entryY=0.5;entryDx=0;entryDy=0;entryPerimeter=0;" parent="1" source="WqIEYXbpBzQ9HVMn9bfy-50" target="WqIEYXbpBzQ9HVMn9bfy-54" edge="1">
          <mxGeometry width="50" height="50" relative="1" as="geometry">
            <mxPoint x="260.5" y="910" as="sourcePoint" />
            <mxPoint x="340.5" y="930" as="targetPoint" />
          </mxGeometry>
        </mxCell>
        <mxCell id="WqIEYXbpBzQ9HVMn9bfy-53" value="&lt;b&gt;&lt;font style=&quot;font-size: 14px&quot;&gt;Yes&lt;/font&gt;&lt;/b&gt;" style="edgeLabel;html=1;align=center;verticalAlign=middle;resizable=0;points=[];" parent="WqIEYXbpBzQ9HVMn9bfy-52" vertex="1" connectable="0">
          <mxGeometry x="-0.273" y="-1" relative="1" as="geometry">
            <mxPoint as="offset" />
          </mxGeometry>
        </mxCell>
        <mxCell id="WqIEYXbpBzQ9HVMn9bfy-54" value="print &quot;a is greater&quot;" style="shape=display;whiteSpace=wrap;html=1;fontSize=16;size=0.2736842105263158;align=right;" parent="1" vertex="1">
          <mxGeometry x="318.5" y="910" width="162" height="40" as="geometry" />
        </mxCell>
        <mxCell id="WqIEYXbpBzQ9HVMn9bfy-57" value="print &quot;b is greater&quot;" style="shape=display;whiteSpace=wrap;html=1;fontSize=16;size=0.2736842105263158;align=right;" parent="1" vertex="1">
          <mxGeometry x="320" y="1100" width="157.5" height="37" as="geometry" />
        </mxCell>
        <mxCell id="WqIEYXbpBzQ9HVMn9bfy-58" value="&lt;font style=&quot;font-size: 16px&quot;&gt;End&lt;/font&gt;" style="rounded=1;whiteSpace=wrap;html=1;fontSize=30;align=center;" parent="1" vertex="1">
          <mxGeometry x="494.5" y="954" width="110" height="40" as="geometry" />
        </mxCell>
        <mxCell id="WqIEYXbpBzQ9HVMn9bfy-61" value="&lt;b&gt;&lt;font style=&quot;font-size: 21px&quot; color=&quot;#7d19ff&quot;&gt;Method 2&lt;/font&gt;&lt;/b&gt;" style="text;html=1;strokeColor=none;fillColor=none;align=left;verticalAlign=middle;whiteSpace=wrap;rounded=0;fontSize=14;" parent="1" vertex="1">
          <mxGeometry x="80" y="705" width="220" height="30" as="geometry" />
        </mxCell>
        <mxCell id="WqIEYXbpBzQ9HVMn9bfy-70" value="a &amp;gt; b&amp;nbsp;" style="rhombus;whiteSpace=wrap;html=1;" parent="1" vertex="1">
          <mxGeometry x="175.5" y="890" width="80" height="80" as="geometry" />
        </mxCell>
        <mxCell id="WqIEYXbpBzQ9HVMn9bfy-71" value="" style="endArrow=classic;html=1;rounded=0;fontSize=14;exitX=0.5;exitY=1;exitDx=0;exitDy=0;entryX=0.5;entryY=0;entryDx=0;entryDy=0;" parent="1" source="WqIEYXbpBzQ9HVMn9bfy-70" target="WqIEYXbpBzQ9HVMn9bfy-73" edge="1">
          <mxGeometry width="50" height="50" relative="1" as="geometry">
            <mxPoint x="260.5" y="1200" as="sourcePoint" />
            <mxPoint x="216" y="1025" as="targetPoint" />
          </mxGeometry>
        </mxCell>
        <mxCell id="WqIEYXbpBzQ9HVMn9bfy-72" value="No" style="edgeLabel;html=1;align=center;verticalAlign=middle;resizable=0;points=[];fontSize=14;" parent="WqIEYXbpBzQ9HVMn9bfy-71" vertex="1" connectable="0">
          <mxGeometry x="-0.5981" y="1" relative="1" as="geometry">
            <mxPoint as="offset" />
          </mxGeometry>
        </mxCell>
        <mxCell id="WqIEYXbpBzQ9HVMn9bfy-73" value="b &amp;gt; a" style="rhombus;whiteSpace=wrap;html=1;" parent="1" vertex="1">
          <mxGeometry x="174.5" y="1003" width="80" height="80" as="geometry" />
        </mxCell>
        <mxCell id="WqIEYXbpBzQ9HVMn9bfy-74" value="" style="endArrow=classic;html=1;rounded=0;fontSize=14;exitX=0.5;exitY=1;exitDx=0;exitDy=0;entryX=0;entryY=0.5;entryDx=0;entryDy=0;entryPerimeter=0;" parent="1" source="WqIEYXbpBzQ9HVMn9bfy-73" target="WqIEYXbpBzQ9HVMn9bfy-57" edge="1">
          <mxGeometry width="50" height="50" relative="1" as="geometry">
            <mxPoint x="214.5" y="1066" as="sourcePoint" />
            <mxPoint x="318.5" y="1118" as="targetPoint" />
            <Array as="points">
              <mxPoint x="216" y="1118" />
            </Array>
          </mxGeometry>
        </mxCell>
        <mxCell id="WqIEYXbpBzQ9HVMn9bfy-75" value="No" style="edgeLabel;html=1;align=center;verticalAlign=middle;resizable=0;points=[];fontSize=14;" parent="WqIEYXbpBzQ9HVMn9bfy-74" vertex="1" connectable="0">
          <mxGeometry x="-0.5981" y="1" relative="1" as="geometry">
            <mxPoint as="offset" />
          </mxGeometry>
        </mxCell>
        <mxCell id="WqIEYXbpBzQ9HVMn9bfy-76" value="" style="endArrow=classic;html=1;rounded=0;exitX=1;exitY=0.5;exitDx=0;exitDy=0;" parent="1" target="WqIEYXbpBzQ9HVMn9bfy-78" edge="1" source="WqIEYXbpBzQ9HVMn9bfy-73">
          <mxGeometry width="50" height="50" relative="1" as="geometry">
            <mxPoint x="256" y="1055" as="sourcePoint" />
            <mxPoint x="318.5" y="1075" as="targetPoint" />
          </mxGeometry>
        </mxCell>
        <mxCell id="WqIEYXbpBzQ9HVMn9bfy-77" value="&lt;b&gt;&lt;font style=&quot;font-size: 14px&quot;&gt;Yes&lt;/font&gt;&lt;/b&gt;" style="edgeLabel;html=1;align=center;verticalAlign=middle;resizable=0;points=[];" parent="WqIEYXbpBzQ9HVMn9bfy-76" vertex="1" connectable="0">
          <mxGeometry x="-0.273" y="-1" relative="1" as="geometry">
            <mxPoint as="offset" />
          </mxGeometry>
        </mxCell>
        <mxCell id="WqIEYXbpBzQ9HVMn9bfy-78" value="print &quot;b is greater&quot;" style="shape=display;whiteSpace=wrap;html=1;fontSize=16;size=0.2736842105263158;align=right;" parent="1" vertex="1">
          <mxGeometry x="318.5" y="1023" width="162" height="40" as="geometry" />
        </mxCell>
        <mxCell id="WqIEYXbpBzQ9HVMn9bfy-79" value="" style="endArrow=classic;html=1;rounded=0;fontSize=21;fontColor=#7D19FF;exitX=1;exitY=0.5;exitDx=0;exitDy=0;exitPerimeter=0;entryX=0.5;entryY=0;entryDx=0;entryDy=0;" parent="1" source="WqIEYXbpBzQ9HVMn9bfy-54" target="WqIEYXbpBzQ9HVMn9bfy-58" edge="1">
          <mxGeometry width="50" height="50" relative="1" as="geometry">
            <mxPoint x="390" y="1015" as="sourcePoint" />
            <mxPoint x="610" y="930" as="targetPoint" />
            <Array as="points">
              <mxPoint x="550" y="930" />
            </Array>
          </mxGeometry>
        </mxCell>
        <mxCell id="WqIEYXbpBzQ9HVMn9bfy-80" value="" style="ellipse;whiteSpace=wrap;html=1;aspect=fixed;fontSize=21;fontColor=#7D19FF;" parent="1" vertex="1">
          <mxGeometry x="524.5" y="1018" width="50" height="50" as="geometry" />
        </mxCell>
        <mxCell id="WqIEYXbpBzQ9HVMn9bfy-81" value="" style="endArrow=classic;html=1;rounded=0;fontSize=21;fontColor=#7D19FF;exitX=1;exitY=0.5;exitDx=0;exitDy=0;exitPerimeter=0;entryX=0;entryY=0.5;entryDx=0;entryDy=0;" parent="1" source="WqIEYXbpBzQ9HVMn9bfy-78" target="WqIEYXbpBzQ9HVMn9bfy-80" edge="1">
          <mxGeometry width="50" height="50" relative="1" as="geometry">
            <mxPoint x="390" y="1015" as="sourcePoint" />
            <mxPoint x="440" y="965" as="targetPoint" />
          </mxGeometry>
        </mxCell>
        <mxCell id="WqIEYXbpBzQ9HVMn9bfy-82" value="" style="endArrow=classic;html=1;rounded=0;fontSize=21;fontColor=#7D19FF;exitX=1;exitY=0.5;exitDx=0;exitDy=0;exitPerimeter=0;entryX=0.5;entryY=1;entryDx=0;entryDy=0;" parent="1" source="WqIEYXbpBzQ9HVMn9bfy-57" target="WqIEYXbpBzQ9HVMn9bfy-80" edge="1">
          <mxGeometry width="50" height="50" relative="1" as="geometry">
            <mxPoint x="480.5" y="1118" as="sourcePoint" />
            <mxPoint x="550" y="1060" as="targetPoint" />
            <Array as="points">
              <mxPoint x="550" y="1118" />
            </Array>
          </mxGeometry>
        </mxCell>
        <mxCell id="WqIEYXbpBzQ9HVMn9bfy-85" value="" style="endArrow=classic;html=1;rounded=0;fontSize=21;fontColor=#7D19FF;entryX=0.5;entryY=1;entryDx=0;entryDy=0;exitX=0.5;exitY=0;exitDx=0;exitDy=0;" parent="1" source="WqIEYXbpBzQ9HVMn9bfy-80" target="WqIEYXbpBzQ9HVMn9bfy-58" edge="1">
          <mxGeometry width="50" height="50" relative="1" as="geometry">
            <mxPoint x="390" y="1125" as="sourcePoint" />
            <mxPoint x="440" y="1075" as="targetPoint" />
          </mxGeometry>
        </mxCell>
      </root>
    </mxGraphModel>
  </diagram>
</mxfile>
